# xmcd
#
# Track frame offsets:
#	150
#	21589
#	43600
#	58054
#	76042
#	91847
#	117572
#	148578
#	164050
#	187084
#	206320
#	225449
#	248623
#
# Disc length: 3522 seconds
#
# Revision: 0
# Processed by: cddbd v1.5.1PL0 Copyright (c) Steve Scherf et al.
# Submitted via: dBpowerAMP V4.0
#
DISCID=ad0dc00d
DTITLE=Firecracker - So long someday
DYEAR=2005
DGENRE=Country
TTITLE0=Welcome Back to the Party
TTITLE1=(I'm Sorry) Caroline
TTITLE2=Promising
TTITLE3=Mississippi River
TTITLE4=Cast Aside
TTITLE5=Boy Most Likely
TTITLE6=Waltzing Mathilda
TTITLE7=Hey Amy
TTITLE8=Fireflies
TTITLE9=Box of Hearts
TTITLE10=Without Even Trying
TTITLE11=So Long Lorraine
TTITLE12=Valley of the Moon
EXTD=
EXTT0=
EXTT1=
EXTT2=
EXTT3=
EXTT4=
EXTT5=
EXTT6=
EXTT7=
EXTT8=
EXTT9=
EXTT10=
EXTT11=
EXTT12=
PLAYORDER=
